<mxfile host="app.diagrams.net" modified="2020-11-02T00:01:31.809Z" agent="5.0 (Windows NT 10.0; Win64; x64) AppleWebKit/537.36 (KHTML, like Gecko) Chrome/86.0.4240.111 Safari/537.36" etag="3zFB4FC9OR-Ja4ia225Y" version="13.8.7" type="github">
  <diagram id="t0UabHL8bNHiyX68yAu2" name="Page-1">
    <mxGraphModel dx="782" dy="437" grid="1" gridSize="10" guides="1" tooltips="1" connect="1" arrows="1" fold="1" page="1" pageScale="1" pageWidth="1654" pageHeight="2336" math="0" shadow="0">
      <root>
        <mxCell id="0" />
        <mxCell id="1" parent="0" />
        <mxCell id="8jYOyZN9lf0EQ7GN1Sz2-1" value="Logo" style="rounded=0;whiteSpace=wrap;html=1;fillColor=#ffe6cc;strokeColor=#d79b00;" vertex="1" parent="1">
          <mxGeometry x="70" y="190" width="110" height="60" as="geometry" />
        </mxCell>
        <mxCell id="8jYOyZN9lf0EQ7GN1Sz2-2" value="Menu Bar" style="rounded=0;whiteSpace=wrap;html=1;fillColor=#d5e8d4;strokeColor=#82b366;" vertex="1" parent="1">
          <mxGeometry x="180" y="190" width="300" height="60" as="geometry" />
        </mxCell>
        <mxCell id="8jYOyZN9lf0EQ7GN1Sz2-3" value="Search Button" style="rounded=0;whiteSpace=wrap;html=1;fillColor=#dae8fc;strokeColor=#6c8ebf;" vertex="1" parent="1">
          <mxGeometry x="480" y="190" width="60" height="60" as="geometry" />
        </mxCell>
      </root>
    </mxGraphModel>
  </diagram>
</mxfile>
